<mxfile host="app.diagrams.net" modified="2023-05-26T20:40:39.425Z" agent="Mozilla/5.0 (Windows NT 10.0; Win64; x64; rv:109.0) Gecko/20100101 Firefox/113.0" version="21.3.4" etag="wHxZRzu3b22fakatBP_G" type="github">
  <diagram name="Page-1" id="zEKcaAosDp04uGz9b01u">
    <mxGraphModel>
      <root>
        <mxCell id="0" />
        <mxCell id="1" parent="0" />
      </root>
    </mxGraphModel>
  </diagram>
</mxfile>
